<svg xmlns="http://www.w3.org/2000/svg" viewBox="0 0 512 512" style="height: 512px; width: 512px;">
  <g stroke-opacity="1" stroke-width="5" stroke="var(--icon-stroke, #000000)" fill-opacity="var(--icon-fill-opacity, 1)">

    <!-- I -->
    <polygon points="385.5 277.49 493.5 277.49 493.5 313.49 457.5 313.49 457.5 457.49 493.5 457.49 493.5 493.49 385.5 493.49 385.5 457.49 421.5 457.49 421.5 313.49 385.5 313.49 385.5 277.49" style="fill: var(--icon-roman-fill, #ffffff);"></polygon>

    <!-- II -->
    <path d="M311.99,277.49h180s0,36,0,36h-36v144h36v36s-180,0-180,0v-36h36l-1.06-144.05-34.94.05v-36ZM383.99,457.49h36v-144s-36,0-36,0v144Z" style="fill: var(--icon-roman-fill, #ffffff);"></path>

    <!-- III -->
    <path d="M311.99,277.49h180v36h-18v144h18v36s-180,0-180,0v-36h18v-144h-18v-36ZM365.99,457.49h18v-144h-18v144ZM419.99,457.49h18v-144h-18v144Z" style="fill: var(--icon-roman-fill, #ffffff);"></path>

    <!-- IV -->
    <path d="M293.99,277.49h198v36h-18l-35.86,144h53.86v36h-198v-36.33l18,.33v-144h-18v-36ZM419.99,420.12l18-106.63h-36l18,106.63ZM347.99,457.49h54l-36-144h-18v144Z" style="fill: var(--icon-roman-fill, #ffffff);"></path>

    <!-- V -->
    <path d="M347.99,277.49h144v36h-18l-35.86,144h53.86v36h-144v-36h54l-36-144h-18v-36ZM419.99,420.12l18-106.63h-36l18,106.63Z" style="fill: var(--icon-roman-fill, #ffffff);"></path>

    <!-- VI -->
    <path d="M491.99,313.49h-18s0,144,0,144l18-.33v36.33h-198v-36h53.86s-35.86-144-35.86-144h-18v-36h198v36ZM383.99,313.49h-36s18,106.63,18,106.63l18-106.63ZM437.99,313.49h-18s-36,144-36,144h54s0-144,0-144Z" style="fill: var(--icon-roman-fill, #ffffff);"></path>
    <path d="M491.99,313.49h-18s0,144,0,144l18-.33v36.33h-198v-36h53.86s-35.86-144-35.86-144h-18v-36h198v36ZM383.99,313.49h-36s18,106.63,18,106.63l18-106.63ZM437.99,313.49h-18s-36,144-36,144h54s0-144,0-144Z" style="fill: var(--icon-roman-fill, #ffffff);"></path>

    <!-- VII -->
    <path d="M239.99,277.49h252v36h-18v144h18v36s-252,0-252,0v-36h54l-37.99-144h-16.01v-36ZM311.99,420.12l18-106.63h-36s18,106.63,18,106.63ZM383.99,457.49v-144s-18,0-18,0l-36,144h54ZM419.99,457.49l18-.33v-143.67s-18,0-18,0v144Z" style="fill: var(--icon-roman-fill, #ffffff);"></path>

    <!-- VIII -->
    <path d="M185.99,277.49h306v36h-18v144h18v36s-306,0-306,0v-36.33h54l-36-143.67h-18v-36ZM257.99,420.12l18-106.63h-36s18,106.63,18,106.63ZM275.99,457.49h54s0-144,0-144h-18s-36,144-36,144ZM365.99,457.49h18v-144h-18s0,144,0,144ZM419.99,457.49h18v-144h-18v144Z" style="fill: var(--icon-roman-fill, #ffffff);"></path>

    <!-- IX -->
    <path d="M293.99,277.49h198v36h-18l-18,71.91,18,72.09h18v36h-198.76v-36l17.78-.16.17-144.17-17.2.33v-36ZM347.99,457.49h18l18-71.91-18-72.09h-18v144ZM419.99,367.58l18-54.09h-36l18,54.09ZM401.99,457.49l36,.17-18-54.09-18,53.91Z" style="fill: var(--icon-roman-fill, #ffffff);"></path>

    <!-- X -->
    <path d="M347.99,277.49h144v36h-18l-18,71.91,18,72.09h18v36h-144v-36h18l18-71.91-18-72.09h-18v-36ZM419.99,367.58l18-54.09h-36l18,54.09ZM401.99,457.66h36l-18-54.09-18,54.09Z" style="fill: var(--icon-roman-fill, #ffffff);"></path>

    <!-- UP -->
    <polygon points="330.03 328.37 401.75 256.65 473.47 328.37 437.61 328.37 437.61 472.56 365.89 472.56 365.89 328.37 330.03 328.37" style="fill: var(--icon-roman-fill, #ffffff);"></polygon>

    <!-- DOWN -->
    <polygon points="491.72 421.91 420 493.63 348.28 421.91 384.14 421.91 384.14 277.71 455.86 277.71 455.86 421.91 491.72 421.91" style="fill: var(--icon-roman-fill, #ffffff);"></polygon>

  </g>
</svg>
