<svg xmlns="http://www.w3.org/2000/svg" viewBox="0 0 512 512" style="height: 512px; width: 512px;">
  <g>
    <path d="M405.822 78.899L430.266 103.343L100.485 433.1L76.04 408.657Z" style="fill: var(--icon-fill, #bb52f5); fill-opacity: var(--icon-fill-opacity, 1); stroke: var(--icon-stroke, #000000);" stroke-opacity="1" stroke-width="5"></path>
    <path d="M168.32 255.677C168.335 195.039 228.409 152.711 285.516 173.102L328.918 129.7C305.351 122.157 280.745 118.361 256 118.452C227.138 118.531 198.528 123.821 171.546 134.068C158.119 139.223 145.124 145.439 132.685 152.658C120.523 159.752 108.887 167.713 97.869 176.479C87.51 184.682 77.682 193.536 68.446 202.986C60.463 211.05 52.893 219.512 45.765 228.341L41.305 233.895L37.375 239.162C34.932 242.366 32.857 245.386 31.175 247.84C29.492 250.295 28.201 252.381 27.325 253.695L26 255.758L27.325 257.821C28.201 259.146 29.492 261.278 31.175 263.675C32.857 266.073 34.932 269.15 37.375 272.354L41.305 277.62L45.765 283.175C52.893 292.004 60.462 300.466 68.445 308.53C77.682 317.98 87.509 326.834 97.869 335.037C102.632 338.817 107.572 342.49 112.689 346.055L173.425 285.319C170.025 275.807 168.297 265.778 168.319 255.677Z" style="fill: var(--icon-fill, #bb52f5); fill-opacity: var(--icon-fill-opacity, 1); stroke: var(--icon-stroke, #000000);" stroke-opacity="1" stroke-width="5"></path>
    <path d="M484.687 253.591C483.811 252.254 482.521 250.076 480.837 247.702C479.155 245.328 477.081 242.193 474.637 238.966C472.194 235.509 469.382 231.971 466.247 228.099C459.118 219.238 451.549 210.741 443.567 202.64C434.333 193.17 424.505 184.298 414.144 176.076C408.438 171.55 402.572 167.229 396.557 163.122L337.182 222.497C362.721 284.985 311.037 351.686 244.152 342.56C236.833 341.561 229.67 339.642 222.832 336.847L179.522 380.157C204.155 388.526 229.984 392.834 256 392.913C284.846 393.013 313.467 387.842 340.454 377.655C353.882 372.522 366.878 366.321 379.315 359.111C391.483 352.025 403.119 344.063 414.131 335.289C424.492 327.067 434.32 318.195 443.554 308.725C451.536 300.624 459.106 292.128 466.235 283.267C469.381 279.383 472.182 275.81 474.625 272.399C477.068 269.172 479.143 266.152 480.825 263.663C482.508 261.173 483.799 259.053 484.675 257.773L486 255.69Z" style="fill: var(--icon-fill, #bb52f5); fill-opacity: var(--icon-fill-opacity, 1); stroke: var(--icon-stroke, #000000);" stroke-opacity="1" stroke-width="5"></path>
  </g>
</svg>
