<svg xmlns="http://www.w3.org/2000/svg" viewBox="0 0 512 512" style="height: 512px; width: 512px;">
  <g style="fill: var(--icon-fill,rgb(0, 0, 201)); fill-opacity: var(--icon-fill-opacity, 1); stroke: var(--icon-stroke, #000000);" stroke-opacity="1" stroke-width="5">
    <path class="numeral" d="M232.11,105.47v75.44l-83.58,212.61c-4.22,10.28-10.88,15.42-19.98,15.42-9.58,0-16.4-5.13-20.46-15.38L25.08,180.91v-75.44c0-5.86,2-10.82,5.99-14.89,3.99-4.07,8.85-6.1,14.56-6.1s10.56,2.04,14.56,6.1c3.99,4.07,5.99,9.03,5.99,14.88v66.87l62.42,159.21,62.4-158.73v-67.35c0-5.86,2-10.82,6-14.89s8.85-6.1,14.56-6.1,10.56,2.04,14.56,6.1c4,4.07,6,9.03,6,14.89Z"></path>
    <path class="numeral" d="M206.23,83.63h166.01c5.37,0,10.13,2.04,14.28,6.1,4.15,4.07,6.22,8.87,6.22,14.4s-2.04,10.62-6.1,14.77c-4.07,4.15-8.87,6.23-14.4,6.23h-62.01v241.94h62.01c5.7,0,10.54,2,14.53,5.98,3.99,3.99,5.98,8.83,5.98,14.53s-2.04,10.54-6.1,14.53c-4.07,3.99-8.87,5.98-14.4,5.98h-166.01c-5.7,0-10.54-1.99-14.53-5.98-3.99-3.99-5.98-8.83-5.98-14.53s1.99-10.54,5.98-14.53,8.83-5.98,14.53-5.98h62.99V125.14h-62.99c-5.7,0-10.54-2.03-14.53-6.1-3.99-4.07-5.98-8.87-5.98-14.4,0-5.86,1.99-10.82,5.98-14.89,3.99-4.07,8.83-6.1,14.53-6.1Z"></path>
    <path class="numeral" d="M289.06,83.63h166.02c5.37,0,10.13,2.04,14.28,6.1,4.15,4.07,6.23,8.87,6.23,14.4s-2.04,10.62-6.1,14.77c-4.07,4.15-8.87,6.23-14.4,6.23h-62.01v241.94h62.01c5.7,0,10.54,2,14.53,5.98,3.99,3.99,5.98,8.83,5.98,14.53s-2.04,10.54-6.1,14.53c-4.07,3.99-8.87,5.98-14.4,5.98h-166.02c-5.7,0-10.54-1.99-14.53-5.98-3.99-3.99-5.98-8.83-5.98-14.53s1.99-10.54,5.98-14.53,8.83-5.98,14.53-5.98h62.99V125.14h-62.99c-5.7,0-10.54-2.03-14.53-6.1-3.99-4.07-5.98-8.87-5.98-14.4,0-5.86,1.99-10.82,5.98-14.89,3.99-4.07,8.83-6.1,14.53-6.1Z"></path>
  </g>
</svg>
