<svg xmlns="http://www.w3.org/2000/svg" viewBox="0 0 512 512" style="height: 512px; width: 512px;">
  <g style="fill: var(--icon-fill,rgb(0, 0, 201)); fill-opacity: var(--icon-fill-opacity, 1); stroke: var(--icon-stroke, #000000);" stroke-opacity="1" stroke-width="5">
    <path class="numeral" d="M270.39,96.13v82.98l-91.94,233.87c-4.64,11.3-11.97,16.96-21.97,16.96-10.54,0-18.04-5.64-22.51-16.92L42.65,179.11v-82.98c0-6.45,2.2-11.9,6.59-16.38,4.39-4.47,9.73-6.71,16.01-6.71s11.61,2.24,16.01,6.71c4.39,4.47,6.59,9.93,6.59,16.37v73.55l68.66,175.14,68.64-174.61v-74.09c0-6.44,2.2-11.9,6.6-16.37,4.4-4.47,9.73-6.71,16.02-6.71s11.62,2.24,16.02,6.71c4.4,4.48,6.6,9.94,6.6,16.38Z"></path>
    <path class="numeral" d="M253.75,73.03h182.62c5.91,0,11.14,2.24,15.71,6.71,4.57,4.48,6.85,9.76,6.85,15.84s-2.24,11.68-6.71,16.25c-4.48,4.57-9.76,6.85-15.84,6.85h-68.21v266.14h68.21c6.26,0,11.59,2.19,15.98,6.58,4.38,4.39,6.58,9.71,6.58,15.98s-2.24,11.59-6.71,15.98c-4.48,4.39-9.76,6.58-15.84,6.58h-182.62c-6.27,0-11.59-2.19-15.98-6.58-4.39-4.38-6.58-9.71-6.58-15.98s2.19-11.59,6.58-15.98c4.38-4.39,9.71-6.58,15.98-6.58h69.29V118.69h-69.29c-6.27,0-11.59-2.24-15.98-6.71-4.39-4.47-6.58-9.76-6.58-15.84,0-6.45,2.19-11.9,6.58-16.38,4.38-4.47,9.71-6.71,15.98-6.71Z"></path>
  </g>
</svg>
