<svg xmlns="http://www.w3.org/2000/svg" viewBox="0 0 512 512" style="height: 512px; width: 512px;">
  <g style="fill: var(--icon-fill,rgb(0, 0, 201)); fill-opacity: var(--icon-fill-opacity, 1); stroke: var(--icon-stroke, #000000);" stroke-opacity="1" stroke-width="5">
    <path class="numeral" d="M365.2,96.13v82.98l-91.94,233.87c-4.64,11.3-11.97,16.96-21.98,16.96-10.54,0-18.04-5.64-22.51-16.92l-91.31-233.91v-82.98c0-6.45,2.19-11.9,6.59-16.38,4.39-4.47,9.73-6.71,16.01-6.71s11.61,2.24,16.01,6.71c4.39,4.47,6.59,9.93,6.59,16.37v73.55l68.66,175.14,68.64-174.61v-74.09c0-6.44,2.2-11.9,6.6-16.37,4.4-4.47,9.73-6.71,16.02-6.71s11.62,2.24,16.02,6.71c4.4,4.48,6.6,9.94,6.6,16.38Z"></path>
  </g>
</svg>
