<svg xmlns="http://www.w3.org/2000/svg" viewBox="0 0 512 512" style="height: 512px; width: 512px;">
  <g style="fill: var(--icon-fill,rgb(0, 0, 201)); fill-opacity: var(--icon-fill-opacity, 1); stroke: var(--icon-stroke, #000000);" stroke-opacity="1" stroke-width="5">
    <path class="numeral" d="M378.92,293.52l-65.52,111.5c-3.74,6.52-9.51,9.79-17.32,9.79-5.86,0-10.86-2.11-15.01-6.35-4.15-4.23-6.22-8.87-6.22-13.92,0-3.91,1.22-7.9,3.67-11.98l76.48-130.04-75.01-128.51c-2.93-5.03-4.4-9.66-4.4-13.89,0-5.21,2.03-9.8,6.08-13.79,4.05-3.99,8.76-5.98,14.11-5.98,7.95,0,13.79,3.28,17.52,9.84l66.07,110.92,65.07-110.55c4.07-6.81,9.87-10.21,17.37-10.21,5.71,0,10.68,1.97,14.92,5.92,4.24,3.94,6.36,8.71,6.36,14.29,0,3.78-1.06,7.47-3.18,11.05l-77.03,131.11,76.54,131.34c1.95,3.25,2.93,6.73,2.93,10.44,0,5.81-2,10.65-5.99,14.52s-8.84,5.8-14.54,5.8c-7.98,0-13.93-3.25-17.84-9.75l-65.09-111.54Z"></path>
    <path class="numeral" d="M47.56,90.35h166.02c5.37,0,10.13,2.04,14.28,6.1,4.15,4.07,6.22,8.87,6.22,14.4s-2.04,10.62-6.1,14.77c-4.07,4.15-8.87,6.23-14.4,6.23h-62.01v241.94h62.01c5.7,0,10.54,2,14.53,5.98,3.99,3.99,5.98,8.83,5.98,14.53s-2.04,10.54-6.1,14.53c-4.07,3.99-8.87,5.98-14.4,5.98H47.56c-5.7,0-10.54-1.99-14.53-5.98-3.99-3.99-5.98-8.83-5.98-14.53s1.99-10.54,5.98-14.53,8.83-5.98,14.53-5.98h62.99v-241.94h-62.99c-5.7,0-10.54-2.03-14.53-6.1-3.99-4.07-5.98-8.87-5.98-14.4,0-5.86,1.99-10.82,5.98-14.89,3.99-4.07,8.83-6.1,14.53-6.1Z"></path>
    <path class="numeral" d="M130.39,90.35h166.01c5.37,0,10.13,2.04,14.28,6.1,4.15,4.07,6.22,8.87,6.22,14.4s-2.04,10.62-6.1,14.77c-4.07,4.15-8.87,6.23-14.4,6.23h-62.01v241.94h62.01c5.7,0,10.54,2,14.53,5.98,3.99,3.99,5.98,8.83,5.98,14.53s-2.04,10.54-6.1,14.53c-4.07,3.99-8.87,5.98-14.4,5.98h-166.01c-5.7,0-10.54-1.99-14.53-5.98-3.99-3.99-5.98-8.83-5.98-14.53s1.99-10.54,5.98-14.53,8.83-5.98,14.53-5.98h62.99v-241.94h-62.99c-5.7,0-10.54-2.03-14.53-6.1-3.99-4.07-5.98-8.87-5.98-14.4,0-5.86,1.99-10.82,5.98-14.89,3.99-4.07,8.83-6.1,14.53-6.1Z"></path>
  </g>
</svg>
