<svg xmlns="http://www.w3.org/2000/svg" viewBox="0 0 512 512" style="height: 512px; width: 512px;">
  <g style="fill: var(--icon-fill,rgb(0, 0, 201)); fill-opacity: var(--icon-fill-opacity, 1); stroke: var(--icon-stroke, #000000);" stroke-opacity="1" stroke-width="5">
    <path class="numeral" d="M254.61,296.53l-72.07,122.65c-4.12,7.17-10.47,10.76-19.05,10.76-6.45,0-11.95-2.32-16.51-6.98-4.56-4.65-6.84-9.76-6.84-15.31,0-4.3,1.34-8.69,4.03-13.18l84.12-143.04-82.51-141.36c-3.23-5.53-4.84-10.62-4.84-15.28,0-5.73,2.23-10.78,6.69-15.17,4.46-4.39,9.63-6.58,15.53-6.58,8.74,0,15.17,3.61,19.27,10.82l72.68,122.01,71.58-121.6c4.48-7.49,10.85-11.23,19.11-11.23,6.28,0,11.75,2.17,16.42,6.51s7,9.58,7,15.72c0,4.16-1.17,8.21-3.49,12.16l-84.73,144.22,84.2,144.47c2.15,3.58,3.23,7.4,3.23,11.48,0,6.39-2.2,11.71-6.59,15.97-4.39,4.25-9.72,6.38-15.99,6.38-8.78,0-15.32-3.57-19.62-10.72l-71.6-122.7Z"></path>
  </g>
</svg>
