<?xml version="1.0" encoding="utf-8"?><!-- Uploaded to: SVG Repo, www.svgrepo.com, Generator: SVG Repo Mixer Tools -->
<svg width="800px" height="800px" viewBox="0 0 24 24" fill="none" xmlns="http://www.w3.org/2000/svg">
<path d="M11.42 23C11.2576 23.0007 11.0995 22.948 10.97 22.85L4.12 17.73C4.02667 17.6596 3.95035 17.5691 3.89669 17.4653C3.84304 17.3614 3.81341 17.2468 3.81 17.13V6.88C3.81191 6.76145 3.84082 6.64489 3.89454 6.53919C3.94825 6.43349 4.02536 6.34143 4.12 6.27L11 1.15C11.1298 1.05263 11.2877 1 11.45 1C11.6123 1 11.7702 1.05263 11.9 1.15L18.75 6.27C18.8434 6.34194 18.9189 6.43434 18.971 6.5401C19.023 6.64586 19.05 6.76215 19.05 6.88V17.13C19.0485 17.2462 19.0207 17.3605 18.9688 17.4644C18.9168 17.5683 18.842 17.6591 18.75 17.73L11.9 22.85C11.7617 22.953 11.5924 23.0059 11.42 23ZM5.31 16.75L11.42 21.31L17.52 16.75V7.25L11.42 2.69L5.31 7.25V16.75Z" fill="#fff"/>
<path d="M11.42 17.33C11.2576 17.3307 11.0995 17.278 10.97 17.18L7.89999 14.89C7.80626 14.8207 7.73023 14.7302 7.6781 14.626C7.62597 14.5217 7.5992 14.4066 7.59999 14.29V9.71001C7.5992 9.59344 7.62597 9.47833 7.6781 9.37407C7.73023 9.2698 7.80626 9.17932 7.89999 9.11001L11 6.82001C11.1298 6.72265 11.2877 6.67001 11.45 6.67001C11.6123 6.67001 11.7702 6.72265 11.9 6.82001L14.96 9.11001C15.0537 9.17932 15.1298 9.2698 15.1819 9.37407C15.234 9.47833 15.2608 9.59344 15.26 9.71001V14.29C15.2608 14.4066 15.234 14.5217 15.1819 14.626C15.1298 14.7302 15.0537 14.8207 14.96 14.89L11.9 17.18C11.7617 17.283 11.5924 17.3359 11.42 17.33ZM9.09999 13.92L11.42 15.65L13.73 13.92V10.08L11.42 8.35001L9.09999 10.08V13.92Z" fill="#fff" />
</svg>