<svg width="74" height="336" xmlns="http://www.w3.org/2000/svg">

 <g>
  <title>Layer 1</title>
  <g stroke="null">
   <!--  BACKGROUND -->
   <g stroke="null">
    <!-- BLUE OUTER -->
    <path stroke="null" fill="#99BFC6" d="m2.875,33.135l0,261.893c-0.089,13.546 3.012,29.103 15.819,36.181c5.882,3.255 12.079,4.998 18.602,4.94c6.518,0.057 12.719,-1.686 18.6,-4.94c12.805,-7.078 15.906,-22.635 15.826,-36.181l0,-261.893l-68.847,0z"/>
    <!-- GRAY INNER -->
    <path stroke="null" fill="#C2CEC9" d="m6.372,33.135l0,258.917c-0.08,13.3 2.705,28.572 14.209,35.522c5.288,3.195 10.854,4.905 16.715,4.85c5.857,0.055 11.429,-1.655 16.713,-4.85c11.502,-6.95 14.294,-22.222 14.214,-35.522l0,-258.917l-61.851,0z"/>
   </g>
   <!-- LEFT-SIDE SHEEN -->
   <g stroke="null">
    <path stroke="null" fill="#9FFFFF" d="m7.994,30.085l0,261.966c0,0 -0.808,29.747 18.95,37.322c0,0 -10.112,-8.521 -11.166,-28.507c-1.053,-19.988 0.316,-269.616 0.316,-269.616l-8.1,-1.165z"/>
   </g>
   <!-- CAP -->
   <g stroke="null">
    <!-- OUTLINE -->
    <path stroke="null" fill="#AC0023" d="m74.318,6.469c0,3.573 -16.639,6.469 -37.159,6.469c-20.519,0 -37.159,-2.896 -37.159,-6.469c0,-3.573 16.639,-6.469 37.159,-6.469c20.519,0 37.159,2.896 37.159,6.469z"/>
    <!-- SIDES -->
    <path stroke="null" fill="#990916" d="m0.138,6.469l0,28.717c0,3.571 16.635,6.469 37.158,6.469c20.519,0 37.156,-2.897 37.156,-6.469l0,-28.717l-74.314,0z"/>
    <!-- SHEEN -->
    <path stroke="null" fill="#E80000" opacity="0.8" d="m13.534,6.469l-7.086,0c0.023,10.779 0.071,21.56 0.057,32.34c1.956,0.503 4.311,0.953 6.981,1.342c0,-11.227 0.025,-22.454 0.048,-33.682z"/>
    <!-- SHADOW -->
    <path stroke="null" fill="#630B0D" d="m71.173,6.469l-16.124,0c0.016,11.467 0.034,22.932 0.034,34.4c7.038,-0.671 12.691,-1.725 16.032,-3.001c-0.004,-10.466 0.031,-20.932 0.058,-31.399z"/>
    <!-- TOP -->
    <path stroke="null" fill="#4D0D0C" d="m74.453,6.469c0,3.573 -16.637,6.469 -37.156,6.469c-20.524,0 -37.158,-2.896 -37.158,-6.469c0,-3.573 16.635,-6.469 37.158,-6.469c20.519,0 37.156,2.896 37.156,6.469z"/>
    <!-- WHITE SHEEN -->
    <path stroke="null" fill="#FFFFFF" d="m0.827,7.71c3.323,2.978 18.387,5.229 36.469,5.229c18.08,0 33.144,-2.25 36.467,-5.229c-5.302,2.617 -19.621,4.495 -36.467,4.495c-16.843,-0.001 -31.164,-1.879 -36.469,-4.495z"/>
   </g>
  </g>
 </g>
</svg>
